<mxfile host="app.diagrams.net" modified="2023-05-26T09:04:11.407Z" agent="Mozilla/5.0 (Windows NT 10.0; Win64; x64; rv:109.0) Gecko/20100101 Firefox/113.0" etag="EbOXufYvc5x4g7k1n8e9" version="21.3.4" type="github">
  <diagram name="Page-1" id="4GWP7BK8pcKoRpre4fgU">
    <mxGraphModel dx="1242" dy="764" grid="1" gridSize="10" guides="1" tooltips="1" connect="1" arrows="1" fold="1" page="1" pageScale="1" pageWidth="850" pageHeight="1100" math="0" shadow="0">
      <root>
        <mxCell id="0" />
        <mxCell id="1" parent="0" />
        <mxCell id="dmuTUSwoO_6LjsxOClZz-1" value="" style="outlineConnect=0;dashed=0;verticalLabelPosition=bottom;verticalAlign=top;align=center;html=1;shape=mxgraph.aws3.sensor;fillColor=#5294CF;gradientColor=none;" parent="1" vertex="1">
          <mxGeometry x="20" y="180" width="76.5" height="90" as="geometry" />
        </mxCell>
        <mxCell id="dmuTUSwoO_6LjsxOClZz-2" value="" style="outlineConnect=0;dashed=0;verticalLabelPosition=bottom;verticalAlign=top;align=center;html=1;shape=mxgraph.aws3.sensor;fillColor=#5294CF;gradientColor=none;" parent="1" vertex="1">
          <mxGeometry x="20" y="410" width="76.5" height="90" as="geometry" />
        </mxCell>
        <mxCell id="dmuTUSwoO_6LjsxOClZz-3" value="" style="outlineConnect=0;dashed=0;verticalLabelPosition=bottom;verticalAlign=top;align=center;html=1;shape=mxgraph.aws3.sensor;fillColor=#5294CF;gradientColor=none;" parent="1" vertex="1">
          <mxGeometry x="20" y="290" width="76.5" height="90" as="geometry" />
        </mxCell>
        <mxCell id="dmuTUSwoO_6LjsxOClZz-4" value="hub" style="whiteSpace=wrap;html=1;aspect=fixed;" parent="1" vertex="1">
          <mxGeometry x="230" y="340" width="60" height="60" as="geometry" />
        </mxCell>
        <mxCell id="dmuTUSwoO_6LjsxOClZz-8" value="" style="endArrow=classic;html=1;rounded=0;exitX=0.91;exitY=1;exitDx=0;exitDy=0;exitPerimeter=0;entryX=0;entryY=0;entryDx=0;entryDy=0;" parent="1" source="dmuTUSwoO_6LjsxOClZz-1" target="dmuTUSwoO_6LjsxOClZz-4" edge="1">
          <mxGeometry width="50" height="50" relative="1" as="geometry">
            <mxPoint x="400" y="490" as="sourcePoint" />
            <mxPoint x="450" y="440" as="targetPoint" />
          </mxGeometry>
        </mxCell>
        <mxCell id="dmuTUSwoO_6LjsxOClZz-9" value="" style="endArrow=classic;html=1;rounded=0;entryX=0;entryY=0.5;entryDx=0;entryDy=0;exitX=0.91;exitY=1;exitDx=0;exitDy=0;exitPerimeter=0;" parent="1" source="dmuTUSwoO_6LjsxOClZz-3" target="dmuTUSwoO_6LjsxOClZz-4" edge="1">
          <mxGeometry width="50" height="50" relative="1" as="geometry">
            <mxPoint x="100" y="280" as="sourcePoint" />
            <mxPoint x="240" y="330" as="targetPoint" />
          </mxGeometry>
        </mxCell>
        <mxCell id="dmuTUSwoO_6LjsxOClZz-10" value="" style="endArrow=classic;html=1;rounded=0;entryX=0;entryY=1;entryDx=0;entryDy=0;exitX=0.91;exitY=1;exitDx=0;exitDy=0;exitPerimeter=0;" parent="1" source="dmuTUSwoO_6LjsxOClZz-2" target="dmuTUSwoO_6LjsxOClZz-4" edge="1">
          <mxGeometry width="50" height="50" relative="1" as="geometry">
            <mxPoint x="100" y="390" as="sourcePoint" />
            <mxPoint x="240" y="370" as="targetPoint" />
          </mxGeometry>
        </mxCell>
        <mxCell id="dmuTUSwoO_6LjsxOClZz-11" value="DB" style="shape=cylinder3;whiteSpace=wrap;html=1;boundedLbl=1;backgroundOutline=1;size=15;" parent="1" vertex="1">
          <mxGeometry x="720" y="600" width="60" height="80" as="geometry" />
        </mxCell>
        <mxCell id="dmuTUSwoO_6LjsxOClZz-12" value="Sensor&lt;br&gt;DB" style="shape=cylinder3;whiteSpace=wrap;html=1;boundedLbl=1;backgroundOutline=1;size=15;" parent="1" vertex="1">
          <mxGeometry x="395" y="340" width="60" height="80" as="geometry" />
        </mxCell>
        <mxCell id="dmuTUSwoO_6LjsxOClZz-13" value="" style="endArrow=classic;html=1;rounded=0;exitX=1;exitY=0.5;exitDx=0;exitDy=0;entryX=0;entryY=0.5;entryDx=0;entryDy=0;entryPerimeter=0;" parent="1" source="dmuTUSwoO_6LjsxOClZz-4" target="dmuTUSwoO_6LjsxOClZz-12" edge="1">
          <mxGeometry width="50" height="50" relative="1" as="geometry">
            <mxPoint x="400" y="490" as="sourcePoint" />
            <mxPoint x="450" y="440" as="targetPoint" />
          </mxGeometry>
        </mxCell>
        <mxCell id="dmuTUSwoO_6LjsxOClZz-15" value="Referenz&lt;br&gt;DB" style="strokeWidth=2;html=1;shape=mxgraph.flowchart.database;whiteSpace=wrap;" parent="1" vertex="1">
          <mxGeometry x="530" y="230" width="70" height="70" as="geometry" />
        </mxCell>
      </root>
    </mxGraphModel>
  </diagram>
</mxfile>
